<?xml version="1.0" standalone="no"?>
<!DOCTYPE svg PUBLIC "-//W3C//DTD SVG 20010904//EN"
 "http://www.w3.org/TR/2001/REC-SVG-20010904/DTD/svg10.dtd">
<svg version="1.0" xmlns="http://www.w3.org/2000/svg"
 width="300.000000pt" height="300.000000pt" viewBox="0 0 300.000000 300.000000"
 preserveAspectRatio="xMidYMid meet">
<metadata>
Created by potrace 1.10, written by Peter Selinger 2001-2011
</metadata>
<g transform="translate(0.000000,300.000000) scale(0.100000,-0.100000)"
fill="#4AFF00" stroke="none">
<path d="M120 2554 l0 -366 30 4 c26 4 30 1 30 -19 0 -13 4 -23 9 -23 5 0 9
26 8 58 0 31 -2 47 -4 35 -6 -31 -32 -51 -43 -33 -8 13 25 70 41 70 13 0 29
-27 38 -66 7 -32 9 -34 10 -11 1 21 6 27 24 27 20 1 21 1 4 11 -10 6 -21 8
-24 5 -13 -13 -45 46 -41 74 3 17 1 30 -4 30 -4 0 -8 -13 -8 -28 0 -34 -7 -43
-26 -35 -20 7 -16 90 4 98 9 3 19 0 24 -7 5 -9 8 -9 8 -1 0 18 -29 43 -51 43
-16 0 -19 4 -13 23 5 17 27 54 50 86 2 2 15 -10 30 -25 l26 -29 -16 28 c-9 15
-14 32 -11 36 3 5 -8 7 -24 5 -25 -4 -32 0 -46 25 -14 29 -14 31 2 31 15 0 16
2 3 10 -13 9 -11 14 13 35 29 26 35 40 13 32 -9 -4 -16 3 -20 19 -8 32 -5 159
4 174 10 16 146 9 142 -7 -1 -7 7 -13 18 -13 21 0 27 15 10 25 -5 3 -10 11
-10 16 0 11 43 2 82 -18 24 -12 27 -11 22 2 -5 13 -2 14 19 6 14 -6 27 -6 29
-2 8 22 45 20 67 -3 l22 -23 37 19 c34 17 37 17 40 2 4 -16 57 -74 68 -74 4 0
3 11 0 25 l-6 25 136 0 c119 0 135 2 130 16 -3 9 -2 12 5 8 7 -4 9 3 7 17 l-3
24 -427 3 -428 2 0 -366z m728 331 c13 -13 -7 -13 -43 1 l-40 15 39 -5 c21 -3
41 -8 44 -11z"/>
<path d="M1020 2906 c0 -8 7 -16 15 -20 8 -3 15 -10 15 -16 0 -7 -6 -8 -17 -2
-25 12 -46 9 -51 -6 -3 -10 137 -12 693 -12 705 1 725 0 725 -34 0 -30 -67
-36 -389 -36 -271 0 -325 2 -345 15 -17 11 -30 13 -47 6 -24 -10 -24 -10 4
-10 16 -1 44 -13 63 -28 31 -23 34 -30 28 -57 -9 -46 -18 -49 -46 -19 -37 41
-123 120 -114 106 6 -10 -52 -13 -274 -13 l-280 0 6 25 c4 18 2 25 -8 25 -10
0 -15 -13 -16 -42 -1 -24 -2 -51 -2 -60 -1 -9 -9 -19 -18 -21 -9 -3 -4 -5 12
-6 20 -1 27 -5 23 -16 -8 -19 11 -31 26 -16 6 6 18 11 26 11 10 0 8 -7 -10
-26 -22 -23 -24 -24 -36 -8 -11 16 -13 16 -19 1 -3 -10 -11 -17 -17 -17 -5 0
-2 9 8 20 10 11 13 20 7 20 -21 0 -82 -42 -82 -57 0 -11 6 -8 19 8 l18 23 7
-22 c4 -12 2 -31 -4 -43 -9 -15 -9 -24 -1 -32 6 -6 11 -9 12 -7 0 3 2 20 4 38
3 38 9 47 25 37 8 -5 6 -13 -6 -26 -15 -17 -15 -20 0 -43 21 -32 20 -52 -1
-65 -17 -10 -16 -10 2 -11 17 0 17 -2 5 -10 -11 -7 0 -10 37 -8 51 1 66 18 17
18 -33 0 -39 21 -20 77 9 25 14 49 11 51 -4 4 -14 -17 -26 -56 -3 -8 -8 -6
-16 7 -10 16 -5 26 36 73 53 59 161 127 147 92 -5 -10 -15 -38 -23 -60 -8 -23
-25 -52 -39 -64 l-24 -23 0 28 c0 15 9 44 21 64 l21 36 -26 -30 c-14 -17 -28
-48 -32 -73 -3 -23 -17 -58 -30 -77 l-23 -34 25 9 c34 13 101 13 126 -1 11 -6
22 -8 25 -5 13 13 -69 37 -103 30 -19 -3 -34 -2 -34 3 0 11 78 78 124 107 36
23 101 16 155 -15 l36 -21 -28 26 c-16 15 -46 29 -69 32 l-41 7 28 14 c25 14
31 13 77 -11 28 -15 53 -25 55 -22 6 5 -62 46 -78 46 -8 1 4 7 26 15 46 16 54
12 61 -37 5 -29 1 -41 -23 -68 l-30 -33 -35 26 c-29 22 -44 27 -89 26 l-54 -2
51 -6 c47 -6 104 -33 104 -49 0 -4 -16 -15 -34 -24 -31 -15 -35 -15 -57 0 -13
9 -44 19 -69 23 l-45 5 40 9 c24 5 55 4 80 -3 46 -12 60 -7 21 8 -49 18 -107
12 -148 -16 -39 -28 -46 -44 -10 -25 29 16 78 14 114 -5 l31 -16 -43 -25 c-36
-22 -46 -24 -62 -14 -22 13 -62 5 -52 -11 4 -7 9 -6 14 2 5 8 15 10 26 6 22
-8 14 -15 -57 -55 -50 -28 -57 -30 -75 -16 -16 13 -16 14 -1 9 9 -3 17 -1 17
5 0 6 7 11 15 11 8 0 15 4 15 9 0 6 -16 3 -35 -5 -19 -7 -54 -15 -77 -15 l-43
-1 49 -9 c67 -11 73 -22 25 -43 l-41 -18 -32 31 c-28 29 -29 33 -13 42 9 5 17
18 17 27 1 23 37 65 50 57 5 -3 10 -1 10 4 0 6 -5 11 -11 11 -5 0 -7 5 -4 10
10 16 -15 40 -41 40 -26 0 -50 -34 -45 -64 2 -12 -1 -16 -10 -11 -8 5 -10 4
-5 -3 4 -6 13 -9 20 -6 16 6 27 -28 16 -46 -4 -7 -15 -10 -24 -7 -22 9 -20 28
2 21 14 -5 14 -4 2 4 -21 15 -45 -5 -29 -24 9 -11 7 -14 -10 -14 -11 0 -21 -5
-21 -10 0 -6 -8 -10 -17 -8 -12 2 -17 -3 -15 -14 2 -11 -3 -18 -13 -18 -17 0
-22 65 -5 75 6 3 10 14 10 23 0 13 -2 13 -15 -4 -13 -16 -16 -17 -24 -4 -12
18 -2 29 50 58 l37 20 9 -21 c8 -18 10 -13 7 23 -3 47 6 60 43 60 12 0 25 4
28 10 8 13 -51 2 -86 -16 -15 -7 -29 -10 -33 -7 -3 4 -6 1 -6 -6 0 -8 8 -11
20 -8 24 6 25 -1 4 -24 -9 -10 -21 -16 -28 -13 -18 7 -79 -58 -65 -67 17 -10
-28 -35 -73 -42 -39 -6 -46 0 -28 21 5 7 2 5 -7 -3 -26 -23 -5 -35 45 -25 l44
8 -7 -35 -6 -35 30 34 30 33 1 -32 c0 -23 -5 -33 -19 -38 -11 -3 -25 -13 -33
-22 -12 -15 -11 -15 10 -4 27 14 40 8 25 -11 -6 -7 -13 -31 -16 -53 -3 -22 -3
-32 -1 -22 3 9 9 17 14 17 4 0 7 8 5 18 -3 23 25 71 47 78 10 3 18 11 18 17 0
7 4 6 10 -3 7 -11 11 -9 19 13 6 15 17 27 25 27 18 0 38 -24 28 -35 -4 -5 -2
-5 5 -1 7 4 21 -2 32 -13 11 -11 28 -24 39 -30 12 -6 20 -21 20 -36 0 -15 5
-32 11 -38 10 -9 11 -6 6 16 -4 15 -5 27 -3 27 14 0 67 -33 84 -51 19 -22 19
-22 -6 -15 -62 17 -67 17 -40 -3 22 -18 23 -21 11 -48 l-13 -28 -17 25 c-9 13
-23 32 -32 41 -9 9 -25 38 -35 64 -10 27 -20 43 -22 37 -2 -7 4 -26 12 -43 19
-39 19 -39 2 -39 -23 0 -56 49 -57 84 0 30 -1 30 -11 8 -13 -27 10 -65 59 -97
33 -21 36 -36 46 -236 3 -64 -27 -119 -65 -119 -33 0 -33 1 -8 42 14 23 20 50
20 93 0 73 -16 107 -26 57 -5 -23 -9 -29 -15 -21 -12 20 -19 7 -30 -61 -5 -35
-15 -72 -21 -84 -11 -20 -11 -20 -20 4 -5 13 -6 30 -3 38 6 17 -12 89 -24 96
-5 3 -22 -27 -39 -66 l-30 -72 -43 3 c-24 1 -45 4 -47 6 -2 1 6 30 18 64 29
88 28 101 -15 101 -34 0 -35 1 -35 41 0 32 3 40 18 38 34 -3 53 1 47 11 -3 5
-20 7 -38 4 -31 -5 -31 -5 -12 11 15 13 33 16 75 12 51 -5 53 -5 25 7 -19 8
-43 10 -65 5 -30 -7 -32 -6 -18 5 10 7 15 15 13 18 -3 3 5 21 18 40 29 41 37
74 28 108 l-7 25 -11 -30 c-6 -16 -19 -39 -30 -50 -17 -18 -18 -21 -5 -31 14
-10 12 -17 -12 -58 -30 -52 -49 -60 -45 -18 4 41 -10 72 -32 72 -10 0 -19 -5
-19 -11 0 -6 7 -9 15 -5 20 7 20 -18 0 -34 -9 -7 -12 -17 -7 -24 12 -16 8 -72
-7 -89 -14 -18 -127 -41 -136 -28 -2 4 3 21 11 39 9 22 19 32 31 30 13 -2 19
5 21 22 2 14 9 32 15 40 11 13 10 13 -5 1 -10 -7 -18 -20 -18 -27 0 -17 -10
-17 -44 -4 -17 6 -24 15 -20 24 3 8 1 23 -5 33 -9 16 -10 16 -11 -4 0 -14 -6
-23 -16 -23 -8 0 -13 -4 -9 -9 3 -5 1 -12 -5 -16 -6 -4 -5 -13 3 -26 10 -17 9
-22 -5 -33 -10 -7 -18 -18 -18 -23 0 -6 -7 -16 -16 -24 -11 -9 -14 -26 -13
-58 3 -41 1 -45 -24 -54 -34 -11 -34 -24 -2 -39 29 -13 33 -50 10 -94 -21 -41
-20 -77 3 -70 16 5 17 -16 14 -379 l-2 -385 69 2 c38 2 67 6 64 11 -6 10 5 9
29 -4 15 -8 18 -17 14 -37 l-5 -27 12 27 c12 27 14 27 32 10 10 -9 7 -2 -8 16
-37 46 -34 55 9 30 22 -13 33 -26 30 -35 -3 -8 -2 -12 3 -8 5 3 20 -9 32 -27
13 -18 27 -34 31 -36 4 -2 8 -10 8 -17 0 -15 -27 -28 -41 -19 -5 3 -9 0 -9 -7
0 -7 11 -10 31 -7 22 4 33 0 40 -14 7 -13 6 -18 -3 -19 -7 0 -3 -5 10 -11 49
-24 5 -58 -55 -43 -20 5 -24 10 -19 29 5 20 3 23 -19 18 -14 -2 -37 -1 -52 3
-26 7 -26 8 -8 15 17 7 15 9 -12 9 -40 1 -64 10 -57 22 3 5 -9 9 -25 9 -21 0
-31 5 -31 15 0 8 -7 15 -15 15 -8 0 -27 16 -42 35 -15 19 -35 35 -43 35 -11
-1 -9 -6 8 -19 18 -16 22 -29 22 -74 l0 -55 71 -64 c71 -63 142 -95 171 -77
10 7 10 9 1 10 -14 2 -28 5 -40 9 -5 2 17 6 47 10 56 7 118 -6 103 -21 -4 -4
-26 -9 -48 -12 l-40 -4 47 -1 c29 -1 48 3 51 11 7 16 27 -11 27 -37 0 -15 -6
-17 -29 -14 -33 5 -53 -18 -44 -51 4 -15 1 -21 -11 -21 -10 0 -13 5 -9 17 5
14 1 15 -30 10 -30 -5 -38 -2 -52 20 -22 33 -15 37 29 19 20 -8 36 -11 36 -6
0 11 -69 34 -77 26 -4 -3 -15 1 -25 11 -29 26 -20 2 13 -37 28 -33 29 -35 9
-38 -14 -2 -39 14 -76 47 -30 28 -73 63 -94 78 -33 23 -40 34 -40 63 0 19 -4
41 -9 49 -8 12 -12 12 -25 -2 -14 -13 -16 -43 -15 -199 1 -154 3 -175 12 -130
l10 52 62 0 c36 0 75 6 91 15 16 8 23 15 16 15 -7 0 -10 5 -7 10 4 6 15 0 26
-15 l20 -25 -28 -25 c-17 -15 -41 -24 -60 -25 -17 0 -35 -5 -38 -10 -4 -6 11
-10 39 -10 33 0 56 8 89 30 25 16 48 38 51 47 6 13 12 9 32 -21 14 -21 28 -35
32 -32 3 4 0 12 -6 18 -28 28 7 42 52 20 16 -8 55 -18 88 -22 79 -11 135 -49
184 -122 42 -65 64 -88 64 -69 0 19 -41 95 -56 104 -7 4 -11 14 -8 22 4 9 -3
16 -20 21 -14 3 -26 10 -26 15 0 5 14 2 32 -7 39 -20 132 -26 116 -6 -6 6 -25
12 -44 12 -36 0 -84 18 -84 32 0 4 16 8 35 8 19 0 35 -4 35 -10 0 -5 7 -7 16
-3 9 3 27 -6 45 -23 35 -34 39 -19 4 18 -20 21 -25 38 -25 76 0 59 7 60 90 21
30 -15 82 -34 115 -44 33 -9 71 -27 85 -40 46 -43 167 -74 288 -75 69 0 79
-11 30 -31 -18 -7 -37 -17 -43 -21 -36 -27 -73 -67 -85 -91 -8 -16 -29 -42
-47 -58 l-34 -29 -247 0 c-199 0 -252 3 -268 14 -10 8 -19 18 -19 23 -2 22
-45 103 -57 103 -7 0 -2 7 10 16 20 14 24 14 45 -1 l22 -17 -22 7 c-30 9 -29
-1 5 -30 28 -25 89 -51 99 -42 2 3 -13 16 -36 29 -22 12 -42 31 -44 40 -6 22
-68 60 -86 53 -15 -6 -73 43 -66 55 3 4 -1 13 -9 19 -10 9 -15 8 -19 -3 -4
-10 7 -26 29 -44 l35 -29 -67 -17 c-36 -9 -67 -16 -68 -14 -1 2 -9 13 -20 25
-18 21 -17 22 16 51 l33 30 -75 0 c-51 0 -83 -5 -100 -15 -16 -11 -44 -16 -85
-14 -43 1 -56 -1 -45 -9 8 -5 29 -10 47 -10 17 0 35 -4 38 -10 3 -6 21 -2 43
10 66 36 90 20 44 -30 -12 -13 -22 -27 -22 -32 0 -4 -10 -10 -23 -13 -13 -4
-28 -15 -35 -25 -10 -17 -8 -22 21 -36 38 -20 107 -26 107 -10 1 27 33 49 99
66 38 10 72 16 75 13 11 -11 -50 -54 -104 -74 -47 -17 -57 -24 -53 -40 3 -11
15 -21 27 -23 112 -21 127 -34 76 -65 -26 -16 -52 -19 -141 -20 -76 0 -109 4
-109 12 0 8 -3 8 -12 -1 -7 -7 -39 -12 -75 -12 -61 0 -64 1 -84 33 -17 27 -20
44 -17 112 3 44 1 94 -3 110 -4 18 -7 -19 -8 -89 l-1 -120 -20 22 c-23 24 -28
110 -8 130 9 9 9 15 0 24 -15 15 -17 122 -2 113 20 -12 10 23 -10 36 l-21 14
21 40 c13 26 17 42 10 49 -13 13 -13 29 0 21 6 -3 10 -1 10 5 0 7 -8 9 -20 5
-15 -5 -18 -3 -14 8 3 8 15 18 27 21 21 6 21 7 4 20 -18 14 -25 82 -7 71 6 -3
10 1 10 9 0 9 -4 16 -10 16 -18 0 -11 18 10 23 18 5 19 15 19 161 l1 156 -25
0 c-13 0 -27 5 -31 12 -5 8 2 9 24 5 l31 -6 0 340 c0 187 -4 337 -8 335 -5 -3
-7 -27 -5 -53 l3 -48 -9 40 c-9 42 -5 75 10 75 6 0 9 43 9 95 0 59 -4 95 -11
95 -5 0 -8 -7 -4 -15 3 -9 0 -15 -9 -15 -18 0 -31 20 -13 21 7 0 4 4 -7 9 -21
9 -8 14 28 11 12 -2 17 5 17 23 0 14 -5 28 -10 31 -6 3 -10 17 -10 30 0 21
-17 35 -41 35 -5 0 -9 -395 -9 -989 l0 -990 35 6 35 6 0 -42 0 -41 238 0 c219
0 240 2 255 18 21 23 22 36 1 28 -9 -4 -14 -1 -12 5 2 6 22 19 43 27 22 9 46
24 53 34 19 26 35 22 28 -7 l-6 -25 274 0 c277 0 326 6 326 37 0 7 8 13 19 13
13 0 20 9 24 30 7 35 83 121 100 114 7 -2 42 18 77 45 36 27 67 47 69 45 6 -6
-53 -96 -83 -126 -45 -45 -51 -32 -11 25 30 41 32 47 11 28 -14 -13 -35 -44
-47 -68 -32 -67 -63 -75 -35 -9 8 20 13 36 11 36 -9 0 -35 -60 -35 -80 0 -13
-12 -28 -30 -38 -16 -9 -30 -20 -30 -24 0 -4 -18 -17 -40 -29 -22 -13 -40 -29
-40 -38 0 -10 7 -8 26 10 l26 24 405 2 c377 2 409 1 445 -17 37 -18 38 -18 38
1 0 12 -5 16 -15 13 -8 -4 -25 0 -38 8 -38 25 -74 28 -319 28 -207 0 -238 2
-238 15 0 8 4 15 9 15 5 0 20 17 32 38 13 20 26 39 30 42 3 3 21 33 39 67 36
66 47 74 165 117 82 30 98 32 115 11 7 -8 25 -15 41 -15 15 0 31 -5 34 -10 3
-5 -1 -10 -9 -10 -8 0 -21 -8 -28 -19 -7 -10 -36 -38 -64 -62 -28 -24 -68 -63
-89 -87 l-38 -42 44 25 c24 13 44 28 44 32 1 17 54 64 90 79 27 11 34 18 25
24 -35 22 31 41 158 46 l72 3 0 -28 c0 -15 -8 -36 -18 -47 -9 -10 -25 -31 -35
-46 -10 -16 -26 -28 -39 -28 -12 0 -29 -6 -37 -14 -10 -9 -48 -17 -96 -20
-103 -8 -156 -16 -175 -27 -9 -6 11 -7 55 -4 38 4 71 8 74 10 2 2 12 -7 23
-20 18 -23 26 -25 86 -24 53 1 62 4 42 11 -13 5 -36 8 -50 7 -47 -2 -70 1 -70
11 0 6 26 10 58 10 40 0 53 3 42 10 -11 7 -4 10 25 10 22 0 51 -7 63 -16 14
-10 22 -11 22 -4 0 7 -9 14 -20 17 -11 3 -20 10 -20 15 0 6 9 8 20 5 11 -3 20
-1 20 5 0 15 52 5 63 -13 8 -13 6 -24 -6 -43 -15 -22 -25 -26 -62 -26 -51 0
-63 -10 -33 -29 18 -11 20 -11 15 3 -5 12 0 16 16 16 13 0 28 -5 34 -11 9 -9
17 -3 31 20 13 22 22 28 25 19 4 -7 4 -1 1 14 -3 15 -1 35 6 45 10 15 10 14 5
-9 -3 -18 -1 -28 6 -28 7 0 10 3 6 6 -3 3 3 28 14 55 20 53 25 84 9 59 -13
-21 -13 22 1 75 6 22 10 52 10 67 -1 18 6 31 19 38 18 10 21 7 26 -20 4 -16
10 -30 15 -30 5 0 9 -8 9 -18 0 -9 16 -41 35 -71 19 -29 35 -59 35 -66 0 -7 6
-18 14 -24 12 -10 15 -6 21 18 3 16 2 46 -4 67 -6 20 -8 41 -6 45 3 4 2 15 -1
24 -5 13 -9 14 -15 4 -6 -10 -11 -5 -18 14 -15 38 -14 47 5 47 9 0 18 -9 21
-20 3 -11 9 -17 14 -14 5 3 9 -1 9 -8 0 -7 9 -2 19 11 22 28 30 18 24 -26 -5
-33 -27 -45 -36 -20 -4 9 -6 9 -6 0 -1 -7 8 -17 19 -23 28 -15 28 -91 0 -130
-19 -26 -23 -28 -51 -18 -34 12 -85 75 -93 116 -3 15 -8 51 -11 80 -8 61 -19
61 -21 -1 -2 -34 0 -37 6 -17 8 24 8 23 9 -8 1 -18 -6 -48 -13 -67 -13 -31
-13 -35 0 -35 9 0 12 5 8 13 -4 6 -4 9 1 5 4 -4 9 -24 11 -44 2 -20 10 -45 19
-54 12 -14 15 -33 11 -86 -2 -38 -5 -71 -5 -73 -1 -2 -9 3 -18 12 -10 8 -22
17 -28 19 -5 2 -9 9 -8 16 0 7 -2 11 -5 8 -3 -3 -11 -1 -17 4 -9 8 -12 3 -12
-17 0 -16 2 -23 4 -16 3 7 15 0 32 -18 16 -16 33 -29 40 -29 6 0 11 -5 11 -11
0 -5 5 -7 10 -4 6 3 10 15 10 26 0 28 23 69 67 123 82 98 93 116 82 143 -5 13
-9 47 -9 74 l0 49 42 -41 43 -41 -30 -24 c-17 -13 -27 -24 -22 -24 4 0 1 -13
-8 -30 -8 -16 -15 -35 -15 -42 1 -7 12 7 25 32 13 25 57 80 99 123 42 43 76
82 76 87 0 5 -9 11 -19 15 -19 6 -59 48 -89 91 -11 16 -12 16 -8 2 4 -15 -1
-18 -32 -19 -54 -2 -75 2 -91 14 -11 9 -13 9 -8 1 10 -17 -31 -25 -59 -12 -13
6 -24 19 -24 29 0 15 6 18 33 13 24 -4 28 -3 17 5 -12 8 -7 11 21 11 19 0 39
-4 45 -9 11 -11 64 -2 64 11 0 5 -17 6 -37 3 l-38 -7 30 21 c17 12 25 21 20
21 -6 0 -16 -5 -22 -11 -6 -6 -36 -14 -66 -18 -70 -9 -63 8 13 33 56 18 90 21
90 6 0 -5 10 -10 21 -10 12 0 41 -18 65 -40 24 -22 47 -40 52 -40 4 0 6 -15 4
-34 -2 -18 1 -37 7 -40 8 -5 11 7 9 39 -1 43 -4 47 -37 62 l-36 16 38 15 c20
8 37 19 37 23 0 13 -14 11 -29 -3 -11 -11 -13 -7 -9 19 3 18 1 33 -4 33 -4 0
-8 45 -8 101 0 92 2 103 25 133 14 18 25 41 25 52 0 17 -3 16 -20 -6 -10 -14
-17 -26 -15 -29 7 -7 -76 -121 -99 -136 -13 -9 -41 -19 -61 -22 l-37 -6 16 31
c9 17 26 38 38 46 12 9 17 16 9 16 -19 0 -71 -56 -71 -78 0 -19 -26 -30 -107
-47 l-32 -6 25 45 c33 60 23 60 -12 0 -15 -25 -38 -50 -52 -55 -32 -12 -34
-10 -23 29 5 18 6 32 1 32 -5 0 -11 -13 -15 -30 -4 -16 -20 -41 -36 -54 -39
-33 -37 -37 9 -15 20 10 65 25 100 33 53 12 63 12 58 1 -3 -9 5 -16 25 -20 38
-8 51 2 15 11 -37 9 -32 19 15 33 23 7 48 15 57 18 11 5 13 3 7 -8 -5 -8 1 -5
13 5 28 24 35 18 17 -14 -8 -14 -19 -35 -24 -47 -7 -14 -28 -26 -64 -37 -30
-9 -60 -16 -65 -16 -6 0 -26 -14 -44 -30 -21 -19 -38 -28 -48 -24 -8 4 -25 7
-37 7 -20 -1 -20 1 -8 14 8 8 15 19 15 25 0 7 15 9 39 5 30 -4 38 -2 34 8 -3
9 5 15 24 18 15 2 8 2 -17 0 -25 -3 -64 -6 -87 -8 -23 -2 -46 -6 -52 -10 -20
-12 -40 -62 -34 -83 6 -25 18 -29 26 -8 8 19 70 31 93 18 15 -9 14 -12 -14
-26 -38 -20 -40 -24 -8 -22 13 0 22 4 20 7 -5 9 53 49 71 49 8 0 15 -9 15 -20
0 -23 43 -55 65 -47 9 4 22 -5 35 -23 12 -17 26 -30 33 -30 6 0 1 9 -11 20
-12 12 -22 24 -22 28 0 4 27 8 60 9 58 2 66 -2 61 -31 -1 -4 3 -14 9 -21 6 -7
8 -20 4 -28 -5 -15 -9 -15 -34 -2 -28 14 -48 45 -29 45 6 0 7 4 4 10 -11 18
-26 10 -23 -12 2 -13 17 -32 35 -43 18 -11 30 -25 28 -32 -2 -7 2 -10 11 -6 8
3 21 0 29 -7 14 -12 13 -16 -6 -36 -12 -12 -27 -20 -35 -17 -20 8 -17 23 4 17
14 -5 15 -4 2 5 -8 6 -23 11 -32 11 -9 0 -26 16 -38 35 -23 38 -30 41 -47 24
-15 -15 -33 -2 -33 24 0 14 -3 17 -8 10 -10 -16 -64 -21 -69 -5 -3 8 7 12 29
13 18 1 25 3 15 6 -9 2 -15 8 -12 12 2 5 -7 13 -20 19 -22 10 -26 8 -38 -15
l-14 -26 -5 28 c-4 21 -1 29 13 32 11 3 19 14 19 26 0 17 -3 16 -22 -9 -13
-16 -23 -32 -23 -36 0 -4 -17 -27 -37 -51 -32 -38 -36 -49 -32 -86 2 -24 -1
-51 -7 -62 -7 -15 -6 -23 6 -35 17 -17 18 -29 5 -59 -5 -12 -9 -14 -9 -6 -1
11 -4 10 -14 -4 -17 -22 -31 -15 -50 25 -12 24 -12 30 -1 34 38 15 54 132 15
119 -9 -3 3 14 27 37 48 49 51 74 9 76 -15 1 -27 -3 -27 -7 0 -9 15 -13 37
-10 8 1 10 -5 7 -14 -3 -8 -17 -15 -30 -15 -13 0 -23 -3 -22 -7 1 -5 -4 -23
-12 -41 -12 -25 -20 -32 -35 -28 -11 3 -26 6 -32 6 -7 0 -13 8 -13 17 0 15 -1
15 -13 -1 -14 -19 -41 -19 -154 0 l-42 7 43 51 c47 56 86 111 86 120 0 19 -25
0 -56 -44 -20 -28 -50 -58 -67 -67 -27 -13 -234 -93 -243 -93 -2 0 4 16 13 34
10 22 32 43 60 58 23 13 43 26 43 30 0 12 -8 10 -35 -8 -13 -9 -32 -17 -41
-18 -10 -2 -24 -23 -35 -51 -10 -27 -22 -51 -26 -54 -4 -3 -13 -15 -19 -26 -6
-11 -26 -29 -44 -39 l-33 -19 37 52 c20 29 36 58 36 64 0 6 10 22 23 36 l22
25 -28 -17 c-24 -16 -30 -16 -55 -3 -15 8 -38 26 -52 41 l-25 27 53 -7 c64 -9
110 7 118 41 3 13 10 24 15 24 8 0 38 14 144 68 21 11 44 18 50 15 7 -2 17 2
23 9 9 11 4 13 -25 10 -25 -3 -34 -1 -29 7 4 6 19 11 34 11 26 0 26 0 6 14
-37 26 -99 94 -102 112 -3 13 5 9 30 -15 59 -58 63 -58 94 7 16 31 30 60 32
65 2 4 -1 7 -6 7 -6 0 -22 -26 -37 -57 l-26 -57 -55 55 c-54 52 -133 160 -168
227 -16 31 -41 46 -30 18 4 -11 -7 -16 -48 -20 -94 -10 -381 -26 -464 -26
l-80 0 -39 -41 c-70 -73 -307 -281 -312 -275 -3 3 -1 11 4 18 5 7 54 119 108
249 l97 236 36 -39 c19 -21 37 -36 40 -34 3 3 0 12 -6 19 -9 10 -9 16 0 25 6
6 8 15 4 19 -4 4 -10 2 -14 -4 -5 -8 -12 -7 -26 3 -19 14 -19 14 2 14 23 0 29
14 12 25 -6 4 -18 1 -27 -7 -15 -12 -15 -9 -9 27 14 73 17 73 103 -6 44 -41
83 -82 86 -91 5 -16 23 -18 189 -18 197 0 291 10 318 35 9 8 20 12 23 8 13
-12 7 10 -24 94 -17 46 -28 91 -25 99 3 7 23 21 46 30 38 15 49 27 32 38 -13
8 -72 -23 -72 -39 0 -54 -36 27 -65 148 -12 48 -38 57 -163 57 -94 0 -113 3
-109 14 3 8 11 32 18 55 l12 41 53 0 53 0 -10 -32 c-11 -40 -12 -58 -1 -58 14
0 42 58 36 74 -5 13 1 16 30 16 20 0 36 3 36 6 0 5 -69 252 -86 308 -3 10 -10
14 -14 10 -5 -5 -45 -118 -90 -252 -103 -310 -115 -338 -136 -322 -10 9 -13
22 -9 40 4 19 0 34 -15 51 l-21 24 4 -47 c3 -27 1 -48 -4 -48 -5 0 -9 -5 -9
-11 0 -6 8 -8 19 -4 14 4 23 0 31 -14 8 -17 2 -40 -32 -124 -24 -57 -46 -104
-50 -105 -4 0 -23 15 -44 34 -20 20 -31 35 -23 34 30 -5 39 1 39 23 0 25 -36
108 -51 118 -6 3 0 32 16 75 14 38 36 96 47 129 25 73 24 71 43 55 9 -8 15 -9
15 -2 0 6 -7 15 -15 19 -13 8 1 50 85 261 55 138 100 255 100 259 0 4 -5 2
-12 -5 -13 -13 -66 -16 -92 -6 -9 3 -16 16 -16 28 0 18 6 21 41 22 25 1 47 8
57 19 16 17 15 17 -24 11 -22 -3 -64 -16 -93 -28 l-53 -22 41 -19 c51 -24 51
-49 1 -59 -19 -4 -62 -13 -95 -19 -64 -13 -103 -13 -121 2 -7 6 -21 6 -35 0
-23 -9 -22 -10 9 -10 26 -1 33 -5 30 -18 -2 -10 -12 -19 -23 -21 -17 -3 -18
-1 -5 8 13 10 13 11 -2 7 -9 -3 -22 1 -29 9 -7 8 -28 22 -46 29 -31 13 -40 39
-10 30 39 -12 67 -14 67 -6 0 5 -14 11 -31 13 -30 3 -28 5 37 40 113 61 243
99 321 96 58 -3 68 -6 85 -29 11 -15 20 -43 21 -63 1 -20 4 -36 8 -36 7 0 61
132 76 190 l10 35 7 -30 c99 -401 171 -632 278 -885 79 -187 195 -427 262
-544 36 -61 43 -82 35 -93 -9 -11 -8 -12 4 -7 12 4 25 -12 54 -66 21 -39 46
-86 56 -104 9 -18 23 -56 30 -85 6 -28 16 -51 22 -51 20 0 -20 -20 -41 -20
-27 0 -38 -24 -18 -40 21 -18 17 -27 -14 -27 -15 0 -47 -13 -72 -29 -37 -24
-41 -29 -23 -32 12 -2 45 4 74 12 29 9 71 16 93 16 l41 1 -30 13 c-36 15 -19
31 19 17 20 -8 24 -7 20 4 -3 8 -22 17 -42 21 -53 8 -62 12 -62 25 0 7 16 10
45 7 37 -3 44 0 39 12 -3 8 -6 17 -7 20 0 3 10 39 23 80 13 41 24 82 25 90 1
8 5 26 9 39 6 18 10 20 17 10 5 -9 6 3 3 28 -5 48 3 69 53 131 20 24 33 45 30
48 -5 5 -39 -33 -69 -76 l-17 -25 -2 50 c-3 67 -3 65 6 105 6 29 5 33 -6 22
-11 -10 -13 -42 -12 -128 2 -63 1 -114 -1 -114 -2 0 -18 19 -35 42 -20 27 -31
54 -31 76 0 18 -4 31 -8 28 -19 -11 1 -76 36 -116 l35 -42 -27 -84 c-15 -46
-29 -84 -31 -84 -3 0 -18 27 -35 60 -17 33 -34 60 -38 60 -5 0 -15 11 -22 25
-11 20 -11 27 0 40 7 8 10 19 6 23 -4 4 -12 -1 -18 -11 -9 -18 -11 -18 -25 3
-8 11 -12 28 -9 36 4 10 2 13 -7 8 -6 -4 -1 5 13 20 13 14 30 24 37 22 7 -3
17 4 23 14 6 11 23 26 39 35 16 8 31 25 35 39 3 13 24 48 46 77 30 40 40 63
40 90 0 21 3 46 6 56 5 15 4 16 -5 3 -8 -11 -9 29 -4 148 5 127 3 162 -7 162
-8 0 -10 8 -6 24 3 14 2 27 -3 31 -6 3 -4 17 5 33 7 15 14 32 14 37 0 6 19 23
41 39 72 51 33 39 -45 -14 -73 -50 -111 -84 -67 -61 17 9 21 9 21 -2 0 -21
-26 -39 -47 -33 -13 4 -73 -32 -197 -119 -98 -69 -184 -125 -190 -125 -6 0 12
24 40 53 28 28 71 79 96 112 26 34 53 67 62 74 21 18 20 34 -1 27 -10 -3 -83
-6 -162 -8 l-144 -3 -18 40 c-32 72 -36 70 134 74 83 1 217 6 297 10 100 5
147 4 153 -3 5 -8 9 -8 15 0 10 15 67 27 92 19 22 -7 64 -125 76 -216 6 -43 4
-54 -11 -65 -11 -8 -18 -29 -21 -61 -1 -26 -1 -37 2 -23 8 39 26 80 35 80 5 0
10 8 11 18 1 9 4 -30 8 -88 5 -86 2 -127 -17 -230 -29 -155 -57 -251 -89 -301
-13 -21 -24 -41 -24 -44 0 -2 14 -2 30 1 34 7 42 -11 10 -21 -11 -3 -20 -11
-20 -16 0 -6 13 -1 29 10 42 30 109 57 177 71 32 7 83 21 112 32 52 19 52 20
52 62 0 34 5 47 23 60 l22 16 -22 16 c-18 13 -23 26 -23 60 0 24 -4 44 -10 44
-5 0 0 19 10 43 11 23 20 54 20 68 0 31 -24 67 -34 51 -4 -7 -2 -12 3 -12 13
0 14 -61 2 -92 -10 -23 -19 -52 -22 -66 -3 -14 -39 -33 -57 -30 -9 1 -22 -1
-29 -5 -16 -10 -45 35 -37 57 3 9 1 16 -5 16 -6 0 -11 12 -11 28 l1 27 24 -28
c14 -15 25 -39 25 -53 0 -13 4 -24 9 -24 21 0 70 52 85 91 23 56 13 62 -12 7
-10 -24 -29 -52 -41 -62 -21 -19 -21 -19 -21 11 0 18 9 38 24 52 14 13 30 37
37 54 7 18 26 49 43 69 30 39 30 62 -1 37 -15 -12 -16 -12 -10 4 4 10 7 146 7
301 l0 283 25 11 25 12 0 345 0 345 -32 -2 c-31 -3 -33 -1 -36 34 l-3 37 -315
0 -314 0 -1 -32 c-1 -24 -3 -26 -6 -9 -2 12 -8 20 -13 17 -5 -3 -26 -8 -47
-10 -21 -3 -47 -6 -58 -7 -14 -2 -21 4 -23 19 -3 20 -9 22 -65 22 -59 0 -63
-2 -80 -31 -10 -17 -20 -28 -24 -24 -3 3 1 14 10 24 10 10 17 22 17 25 0 4
-102 7 -226 6 l-225 0 6 -32 c5 -24 4 -28 -4 -17 -6 8 -11 22 -11 31 0 14 -27
16 -215 17 -179 2 -215 0 -215 -12z m670 -12 c0 -3 -6 -12 -14 -19 -10 -10
-16 -11 -25 -2 -17 17 -14 22 14 25 14 1 25 -1 25 -4z m719 -12 c1 21 37 13
69 -16 19 -17 26 -18 40 -8 9 6 30 19 46 28 26 15 28 15 23 0 -4 -9 -2 -16 4
-16 5 0 12 7 15 15 8 20 24 9 24 -16 0 -15 7 -19 38 -18 32 0 34 1 15 9 -35
14 -27 20 27 20 30 0 50 -4 50 -11 0 -6 -8 -9 -19 -6 -15 3 -24 -6 -41 -43
-12 -26 -20 -53 -16 -58 3 -6 -3 -26 -15 -46 -21 -37 -18 -58 15 -86 9 -7 16
-20 16 -30 0 -21 -34 -53 -59 -55 -11 -1 -26 -7 -35 -14 -9 -8 -16 -10 -16 -6
0 4 -7 1 -16 -6 -18 -15 -92 -13 -112 3 -9 8 -11 7 -6 -6 8 -21 -23 -22 -73
-1 -19 8 -44 15 -54 15 -24 0 -25 31 -4 90 8 23 15 64 15 91 0 61 22 79 98 79
55 0 111 20 134 47 8 10 0 8 -22 -6 -19 -11 -54 -23 -78 -27 -35 -5 -46 -3
-57 12 -8 11 -13 24 -10 31 2 6 -3 14 -10 17 -9 3 -12 12 -8 22 6 16 7 16 14
-2 6 -15 8 -16 8 -2z m410 -41 c12 -8 10 -16 -8 -52 -12 -23 -20 -51 -17 -62
4 -15 -7 -32 -41 -64 -44 -40 -48 -42 -65 -26 -22 20 -23 52 -3 79 8 10 15 29
15 41 0 12 12 31 28 43 19 15 21 18 5 11 -31 -15 -33 -14 -20 14 10 20 19 25
52 25 22 0 46 -4 54 -9z m53 -63 c0 -10 1 -23 2 -28 1 -6 -12 -20 -29 -31
l-30 -21 27 6 c23 5 27 3 25 -11 -1 -10 -6 -23 -10 -30 -4 -6 -3 -13 2 -15 5
-1 11 -51 13 -110 l4 -106 -35 -5 c-20 -2 -53 2 -75 10 -45 15 -46 15 -46 5 0
-12 84 -32 111 -26 21 5 18 1 -16 -30 -22 -20 -45 -34 -52 -32 -8 4 -9 -3 -1
-27 13 -38 11 -98 -2 -111 -13 -13 -13 -29 0 -21 19 12 32 83 19 107 -11 20
-7 26 36 65 27 23 51 41 53 39 2 -2 5 -58 6 -124 4 -118 3 -120 -20 -131 -13
-6 -24 -15 -24 -21 0 -14 -13 -13 -35 4 -18 13 -17 15 13 57 25 33 32 52 31
83 l-2 41 -6 -40 c-4 -22 -19 -58 -34 -79 -15 -21 -27 -44 -27 -51 0 -7 -8
-15 -17 -19 -10 -3 -24 -9 -30 -12 -9 -4 -13 3 -13 20 0 27 -32 56 -63 56 -10
0 -30 -9 -43 -19 l-24 -19 39 5 c34 5 42 2 67 -26 24 -28 33 -31 64 -26 19 3
40 2 47 -3 11 -7 17 -104 13 -227 l-2 -50 -12 46 c-7 25 -19 54 -25 65 -12 18
-12 18 -5 -1 29 -83 27 -192 -3 -217 -15 -11 -16 -10 -11 10 4 13 2 20 -3 16
-14 -8 -41 17 -35 33 3 8 0 13 -7 11 -23 -4 -58 14 -67 35 -6 14 -9 16 -9 7
-1 -9 28 -46 65 -84 62 -65 90 -108 79 -126 -3 -4 2 -10 10 -14 8 -3 15 -12
15 -21 0 -8 4 -15 9 -15 5 0 13 -9 16 -21 5 -16 -2 -30 -34 -60 -38 -37 -41
-38 -41 -17 1 13 7 34 15 48 8 14 14 32 14 40 0 8 -9 -2 -18 -23 -21 -45 -31
-32 -31 41 0 26 -5 54 -11 62 -10 15 -9 -12 7 -150 5 -44 4 -53 -6 -43 -7 7
-15 27 -17 45 -2 17 -11 43 -20 57 -10 15 -16 49 -18 90 0 36 -7 76 -13 88 -7
12 -12 31 -12 42 0 12 -4 21 -10 21 -13 0 -13 -43 -1 -55 5 -6 13 -28 17 -50
7 -38 6 -39 -11 -25 -11 9 -16 10 -11 3 4 -8 1 -13 -8 -13 -15 0 -32 58 -27
92 1 9 -3 19 -9 23 -5 3 -10 19 -10 35 0 16 -4 31 -9 35 -5 3 -12 19 -16 35
-4 17 -12 30 -18 30 -8 0 -8 3 0 11 9 9 8 15 -3 26 -8 8 -14 24 -14 35 0 46
-172 296 -249 362 -42 35 -65 60 -96 101 -16 21 -66 77 -110 123 -44 46 -85
96 -91 110 -12 28 -39 56 -64 65 -18 6 13 8 228 9 101 0 167 -3 174 -10 6 -6
8 -28 4 -54 -20 -141 -20 -145 3 -158 90 -47 226 -47 323 1 31 16 59 33 63 39
3 5 10 10 15 10 14 0 -1 -31 -27 -60 -12 -13 -25 -37 -29 -53 -3 -16 -22 -47
-42 -69 -31 -34 -34 -43 -26 -66 7 -19 6 -43 -4 -81 -12 -50 -11 -73 5 -58 3
4 14 38 23 75 l16 67 42 6 c61 8 59 15 -3 15 -37 -1 -55 -5 -55 -13 0 -7 -4
-13 -10 -13 -5 0 -10 9 -10 19 0 20 24 35 51 32 16 -2 29 25 29 64 0 27 58 85
79 78 14 -6 14 -5 -1 13 -14 16 -15 26 -5 70 7 32 23 62 40 79 18 19 27 38 27
61 0 36 16 55 23 27 2 -10 3 -4 2 12 -4 47 5 62 21 40 8 -10 15 -27 16 -37z
m-1781 -45 c12 -12 -5 -28 -42 -36 -21 -5 -28 -2 -37 18 -9 20 -8 24 6 27 29
6 62 2 73 -9z m179 -2 c0 -10 -8 -28 -17 -39 -18 -21 -93 -66 -99 -59 -2 2 5
25 15 53 15 39 25 50 47 55 48 11 54 10 54 -10z m93 -1 c7 -6 -61 -40 -81 -40
-5 0 -7 13 -4 29 4 28 6 29 41 24 20 -3 40 -9 44 -13z m150 4 c37 -5 51 -12
61 -32 8 -16 16 -21 20 -13 4 6 15 11 25 11 18 0 268 -263 264 -279 -2 -5 14
-15 35 -22 55 -18 125 -54 161 -85 18 -14 35 -23 39 -19 4 4 -7 19 -24 33 -17
15 -37 38 -44 52 -36 70 -103 140 -162 172 -64 34 -138 114 -138 149 0 27 57
26 87 -3 23 -21 23 -21 37 -2 14 19 15 18 40 -5 14 -14 26 -34 26 -46 0 -13
22 -40 58 -72 32 -28 89 -90 127 -138 39 -48 80 -99 92 -114 l22 -26 -5 25
c-4 23 -4 23 8 7 7 -10 45 -59 84 -108 64 -80 174 -261 174 -285 0 -5 -8 -10
-17 -10 -10 -1 -57 -4 -104 -8 l-86 -8 -37 48 c-92 121 -180 194 -281 230 -56
20 -80 48 -45 50 8 1 25 2 38 2 12 1 22 8 22 16 0 25 -162 78 -280 92 -69 8
-89 22 -97 67 -7 48 19 62 101 53 l60 -6 -26 27 c-14 16 -44 54 -67 85 -22 32
-49 61 -59 67 -21 10 -84 2 -76 -10 5 -9 -36 -29 -60 -29 -7 0 -21 7 -32 15
-19 15 -19 15 0 30 11 8 30 15 42 15 20 0 20 2 -10 35 -26 28 -40 35 -70 35
-24 0 -35 4 -30 11 4 7 21 9 43 5 20 -3 58 -9 84 -12z m102 -132 c21 -14 65
-74 65 -87 0 -19 -49 -25 -66 -8 -8 8 -14 19 -14 26 0 6 -9 21 -21 33 -12 12
-18 27 -14 33 7 13 35 14 50 3z m-156 -16 c15 -8 38 -13 52 -12 l25 3 -23 -46
c-12 -25 -23 -52 -23 -58 0 -17 -15 -16 -34 2 -19 20 -61 35 -94 35 -21 0 -24
2 -12 10 8 5 12 10 9 10 -9 0 55 70 64 70 4 0 20 -6 36 -14z m-559 -62 c0 -8
5 -12 10 -9 6 3 10 1 10 -4 0 -6 -7 -11 -16 -11 -10 0 -14 -6 -11 -15 4 -8 2
-17 -3 -20 -12 -8 -23 32 -16 61 7 26 26 24 26 -2z m1052 -58 c33 -38 34 -46
6 -46 -21 0 -128 102 -128 122 0 15 93 -44 122 -76z m-588 -189 c-9 -23 -41
-105 -71 -182 -30 -77 -59 -153 -65 -170 -6 -16 -15 -35 -20 -41 -7 -10 -85
-12 -208 -6 l-35 2 -1 131 c-1 120 1 130 17 126 23 -6 59 19 59 42 0 28 61 77
99 80 19 2 45 7 58 12 14 5 39 9 56 9 18 0 50 11 72 24 22 13 43 22 47 20 4
-3 0 -24 -8 -47z m451 22 c58 -14 95 -30 95 -41 0 -5 -4 -18 -10 -28 -14 -25
2 -40 97 -86 91 -45 227 -168 221 -200 -4 -22 3 -22 -243 -26 l-189 -3 -12 25
c-14 29 -98 299 -109 349 l-7 34 58 -7 c33 -4 77 -12 99 -17z m-1290 -209 c-9
-18 -14 -34 -11 -37 3 -3 11 7 18 23 11 27 12 28 15 7 3 -13 11 -23 20 -23 22
0 12 -89 -13 -107 -25 -19 -26 -18 -54 35 l-26 48 29 48 c32 52 48 56 22 6z
m-185 4 c10 -24 13 -25 76 -21 l65 4 -53 -55 c-29 -31 -62 -63 -73 -73 -20
-18 -20 -18 2 -12 12 3 29 16 38 30 40 60 73 83 62 43 -3 -10 -2 -19 2 -18 21
2 31 -4 31 -20 0 -21 42 -48 58 -38 23 14 21 -33 -2 -75 -33 -59 -48 -150 -48
-286 0 -62 -4 -111 -8 -108 -5 3 -18 24 -30 48 -30 59 -88 137 -108 144 -9 4
-20 11 -24 17 -4 6 -11 0 -16 -14 -5 -14 -12 -32 -15 -40 -5 -14 -9 83 -8 190
0 34 -2 39 -7 21 -7 -24 -32 -42 -32 -23 0 28 24 73 36 68 16 -6 19 10 4 19
-5 3 -10 12 -10 18 0 7 4 6 10 -3 6 -10 10 -11 10 -2 0 6 5 11 12 10 7 -2 12
2 13 7 0 6 4 17 9 25 7 10 3 10 -11 -2 -25 -23 -59 -23 -67 -2 -9 23 -1 28 42
27 20 0 27 1 15 4 -24 5 -32 33 -10 33 6 1 2 6 -11 13 -42 24 15 39 61 16 21
-10 21 -10 3 5 -11 9 -30 16 -43 16 -27 0 -30 16 -6 42 21 23 22 23 33 -8z
m1229 -96 c27 -93 27 -108 -1 -109 -13 -1 -27 0 -33 1 -5 2 -18 3 -27 4 -10 0
-19 5 -21 11 -5 13 44 165 53 165 4 0 17 -33 29 -72z m-774 -134 c61 -8 180
-18 267 -21 l156 -6 -13 -31 c-8 -17 -16 -39 -19 -48 -5 -16 -19 -18 -106 -18
-88 0 -105 3 -130 22 -52 38 -42 13 12 -33 150 -124 217 -205 218 -262 0 -15
-6 -17 -31 -13 -16 2 -35 9 -42 14 -81 61 -244 196 -327 272 -58 52 -121 107
-140 122 l-35 28 40 -5 c22 -3 90 -12 150 -21z m-145 -32 c25 -20 47 -37 49
-38 3 -2 -16 -91 -47 -227 -9 -35 -27 -32 -28 5 0 14 -6 34 -14 43 -11 14 -11
20 -1 37 13 21 9 34 -8 23 -6 -3 -11 -15 -11 -26 0 -10 -5 -19 -11 -19 -5 0
-8 -4 -5 -9 3 -5 -1 -14 -9 -21 -21 -17 -19 -30 6 -30 11 0 17 -5 14 -10 -3
-6 -10 -33 -14 -60 -7 -41 -5 -52 7 -59 12 -7 16 -27 16 -79 1 -52 6 -75 18
-89 15 -16 16 -24 6 -49 -6 -18 -8 -42 -3 -60 l7 -29 11 30 c5 17 14 35 19 42
5 7 7 17 3 23 -13 20 -25 135 -19 178 9 61 34 57 34 -5 1 -114 74 -288 170
-403 39 -46 40 -49 26 -81 -7 -19 -16 -42 -20 -53 -5 -16 -10 -13 -41 20 -19
22 -35 50 -36 64 -1 17 -3 20 -6 8 -8 -32 -23 -19 -23 20 -1 20 -7 64 -15 97
-12 51 -14 53 -9 15 16 -141 16 -136 2 -119 -7 9 -23 19 -35 23 -13 4 -22 15
-21 24 4 51 -3 122 -12 117 -6 -3 -7 -31 -4 -68 6 -58 5 -61 -10 -42 -16 20
-16 20 -9 0 5 -16 4 -18 -8 -9 -8 6 -29 14 -48 18 -28 5 -31 4 -22 -8 6 -7 26
-16 44 -19 58 -10 107 -37 127 -70 31 -50 24 -52 -25 -9 -45 40 -87 63 -135
77 -14 3 6 -10 44 -29 38 -20 83 -50 99 -66 17 -17 32 -28 35 -26 7 7 58 -74
66 -104 6 -23 6 -24 -6 -5 -30 46 -146 157 -159 153 -9 -4 -5 -9 13 -16 37
-15 45 -32 14 -32 -39 0 -69 18 -96 57 -32 47 -95 109 -154 153 -52 39 -108
116 -132 182 -20 55 -13 172 16 257 11 33 20 77 20 98 l0 38 35 -40 c19 -22
37 -49 41 -60 4 -11 11 -23 16 -26 5 -3 20 -32 33 -64 21 -54 22 -60 8 -82 -9
-13 -11 -23 -5 -23 6 0 12 8 15 18 2 9 4 -41 5 -112 1 -91 6 -145 18 -180 21
-65 28 -79 41 -83 11 -4 10 38 -2 107 -4 19 -9 90 -12 157 -4 104 -2 125 12
139 12 13 13 19 4 30 -19 24 -6 254 20 351 26 93 27 93 101 35z m2160 -107 c0
-78 -7 -92 -26 -51 -9 19 -8 36 5 75 9 28 17 51 19 51 1 0 2 -34 2 -75z m-766
4 c10 -10 -101 -159 -119 -159 -3 0 -13 17 -21 38 -9 20 -23 52 -31 70 -9 19
-12 37 -7 42 15 14 165 22 178 9z m-1217 -76 c48 -43 93 -82 99 -88 7 -5 37
-30 68 -54 l57 -45 -7 -55 c-4 -31 -13 -65 -20 -76 -7 -11 -24 -49 -39 -85
-15 -36 -35 -83 -45 -105 -10 -22 -24 -57 -31 -78 -27 -77 -41 -69 -127 74
-48 79 -71 142 -81 226 -9 74 -32 108 -64 92 -15 -8 -22 -8 -28 2 -20 32 -6
67 25 62 18 -4 26 2 39 30 10 19 17 43 17 52 0 15 8 49 26 113 6 22 22 13 111
-65z m1551 -54 c4 -108 3 -112 -22 -138 -30 -32 -55 -116 -63 -216 -6 -84 -19
-106 -78 -141 -44 -26 -46 -26 -60 -8 -16 22 -134 246 -135 256 0 5 -10 25
-22 45 -23 42 -40 103 -28 103 6 0 201 127 225 147 69 58 146 90 170 70 6 -4
12 -58 13 -118z m-770 115 c29 -6 32 -11 88 -180 76 -229 89 -215 -204 -218
-170 -2 -222 8 -222 39 0 26 112 290 146 343 13 19 23 22 88 22 40 0 87 -3
104 -6z m-476 -20 c9 -8 -3 -44 -15 -44 -13 0 -47 30 -47 42 0 9 53 11 62 2z
m-971 -36 c1 -7 3 -23 4 -35 1 -13 -1 -23 -5 -23 -4 0 -10 16 -12 35 -2 19 0
35 4 35 4 0 9 -6 9 -12z m2487 -64 c2 -29 -14 -64 -30 -64 -7 0 -9 90 -3 100
12 19 31 -2 33 -36z m46 -125 c-3 -5 6 -23 20 -40 14 -17 26 -43 26 -57 -1
-26 -3 -24 -47 25 -36 43 -46 61 -49 97 -3 36 0 45 14 48 12 3 21 -7 29 -30 7
-19 10 -38 7 -43z m102 -27 c-30 -60 -42 -69 -49 -41 -4 14 5 32 30 60 20 22
38 38 40 35 2 -2 -7 -27 -21 -54z m-440 -67 c-9 -14 -16 -32 -16 -41 0 -13 6
-11 28 11 l27 28 3 -31 c2 -22 -8 -47 -42 -97 l-46 -66 0 66 c0 40 8 92 21
133 28 86 33 94 37 54 2 -19 -4 -44 -12 -57z m304 5 c0 -22 7 -57 15 -76 8
-20 12 -40 9 -45 -3 -5 5 -8 17 -6 16 1 24 -4 28 -22 l6 -23 34 31 c18 17 37
31 42 31 15 0 10 -27 -7 -41 -14 -11 -13 -14 10 -26 29 -15 32 -25 12 -42 -10
-8 -21 -8 -41 -1 -15 6 -30 9 -32 6 -2 -2 10 -8 26 -14 24 -8 31 -17 31 -36 0
-31 -6 -32 -34 -8 -21 17 -21 17 -2 -6 11 -12 17 -24 15 -25 -11 -9 -149 -44
-149 -38 0 4 6 13 13 21 6 8 -2 2 -19 -13 -35 -32 -41 -26 -36 34 3 24 8 36
15 32 7 -4 8 0 2 13 -5 10 -11 43 -13 72 -2 28 -8 50 -12 47 -4 -3 -6 5 -3 17
11 53 13 54 34 28 17 -21 19 -22 10 -3 -21 43 -8 133 19 133 6 0 10 -18 10
-40z m-72 -255 c1 -47 -2 -75 -9 -75 -6 0 -8 -9 -4 -22 4 -16 3 -19 -3 -9 -7
9 -12 10 -16 2 -21 -33 -30 0 -19 64 5 27 7 28 14 10 4 -11 5 1 2 29 -5 43 -4
49 10 43 12 -5 17 -1 17 13 0 11 2 20 3 20 2 0 5 -34 5 -75z m-2248 2 c0 -4
14 -21 31 -38 38 -37 29 -51 -32 -47 l-44 3 -3 69 -3 69 25 -24 c14 -13 26
-28 26 -32z m1484 -7 c9 -17 14 -35 11 -41 -4 -6 16 -31 43 -57 28 -26 59 -65
70 -87 11 -22 29 -49 41 -59 12 -11 21 -24 21 -30 -1 -23 -39 -55 -103 -86
-37 -18 -76 -44 -87 -58 -18 -22 -29 -25 -85 -27 -64 -3 -66 -2 -94 34 -16 21
-46 69 -66 109 -39 78 -63 99 -95 82 -38 -20 -41 -47 -15 -144 8 -28 7 -29
-21 -21 -16 4 -56 13 -89 20 -73 16 -141 45 -198 83 -44 30 -107 56 -107 44 0
-12 121 -89 182 -117 31 -14 89 -33 130 -41 72 -15 118 -36 118 -54 0 -29 -99
-42 -201 -25 -41 6 -43 6 -24 -9 15 -12 46 -15 131 -16 98 0 115 -3 144 -22
43 -29 76 -86 56 -94 -27 -10 -201 3 -256 20 -31 9 -63 26 -75 41 -14 18 -46
32 -110 50 -49 15 -106 37 -126 51 -19 13 -40 24 -47 24 -25 0 -62 24 -62 42
0 10 -5 18 -10 18 -6 0 -18 16 -27 36 -17 35 -17 36 7 54 24 18 24 18 62 -20
20 -22 52 -47 70 -56 18 -9 36 -22 41 -28 10 -15 29 14 21 34 -7 17 -25 68
-32 90 -3 11 -7 8 -13 -9 -6 -14 -8 -30 -5 -37 7 -17 -29 -6 -49 16 -15 17
-14 20 9 43 14 15 26 32 26 39 0 7 46 57 102 110 97 92 106 98 148 99 25 1 56
3 70 4 14 2 102 6 195 10 94 4 190 11 215 14 57 9 62 7 84 -29z m-1656 -85
c11 -23 10 -25 -7 -16 -23 13 -35 41 -17 41 7 0 18 -11 24 -25z m2656 -216 c9
-21 -11 -36 -27 -20 -6 6 -24 11 -41 11 -28 0 -29 0 -11 20 22 25 9 26 -18 3
-14 -13 -11 -4 9 27 16 25 38 53 49 62 19 16 20 15 26 -35 3 -29 9 -59 13 -68z
m-1993 -9 l1 -25 8 25 c7 22 8 22 9 4 1 -11 15 -42 32 -68 32 -48 48 -120 34
-153 -5 -10 -7 -23 -7 -29 3 -15 -85 -1 -101 16 -10 10 -2 11 41 6 54 -7 61
-4 39 19 -7 7 -25 27 -40 44 -26 31 -94 68 -104 57 -6 -5 40 -26 56 -26 4 0
16 -10 27 -21 l19 -22 -47 5 c-26 3 -45 2 -42 -3 3 -5 15 -9 28 -9 12 0 26 -4
32 -9 5 -5 20 -11 34 -14 15 -2 6 -5 -21 -6 -36 -1 -50 4 -67 22 -12 13 -20
26 -17 29 3 2 -4 13 -15 23 -11 10 -20 24 -20 31 0 7 -6 15 -12 18 -7 3 2 3
21 0 23 -4 31 -3 27 5 -4 6 0 11 11 11 10 1 -4 10 -31 20 -56 22 -76 19 -25
-4 25 -11 29 -15 14 -15 -26 -1 -65 26 -65 45 0 9 -14 36 -32 61 -25 37 -27
45 -12 38 10 -4 36 -11 57 -15 22 -4 46 -15 55 -23 14 -15 11 -15 -32 -2 -26
8 -44 10 -41 5 5 -9 62 -23 95 -24 8 -1 14 -9 14 -19 -1 -10 0 -16 3 -13 3 3
26 -19 52 -49 25 -29 49 -51 54 -48 11 7 8 51 -4 59 -8 4 -9 -4 -5 -27 6 -30
5 -31 -5 -14 -7 11 -21 45 -30 75 -10 30 -18 51 -18 45 -1 -12 -45 53 -54 80
-4 11 13 -2 38 -30 27 -29 45 -60 46 -75z m149 84 c0 -14 -21 -19 -33 -7 -9 9
13 34 24 27 5 -3 9 -12 9 -20z m-583 -44 c5 0 26 -9 47 -20 22 -10 43 -17 48
-14 5 3 12 -3 15 -15 3 -12 10 -21 17 -22 6 0 -11 -7 -39 -15 -46 -12 -82 -11
-95 5 -3 3 -26 23 -52 44 -33 27 -48 46 -48 62 l0 24 49 -24 c27 -14 53 -25
58 -25z m1156 -52 c35 -72 63 -111 125 -175 l80 -82 -32 -12 c-17 -6 -38 -11
-46 -9 -36 5 -160 178 -191 265 -27 77 -25 99 12 104 3 1 26 -41 52 -91z m771
-63 c-4 -8 -10 -15 -16 -15 -5 0 -7 4 -4 9 3 5 -1 28 -9 51 -22 63 -18 71 10
17 13 -26 22 -54 19 -62z m-1687 10 c31 -27 13 -35 -21 -10 -11 8 -28 15 -38
15 -10 0 -18 5 -18 10 0 19 49 10 77 -15z m-324 -84 c26 -28 47 -53 47 -55 0
-2 -11 -6 -25 -8 -33 -7 -80 41 -70 71 5 16 2 21 -10 21 -12 0 -15 5 -11 16 3
9 6 21 7 27 0 7 3 4 7 -5 4 -9 28 -40 55 -67z m397 19 c12 -16 18 -31 13 -31
-27 -4 -52 -9 -78 -15 l-30 -7 23 25 c12 13 22 32 22 41 0 27 27 20 50 -13z
m1843 -47 c-18 -6 -16 -28 2 -43 19 -16 19 -40 0 -40 -19 0 -34 28 -27 54 6
27 23 48 31 40 3 -4 0 -9 -6 -11z m-1874 -10 c43 5 48 3 89 -39 48 -48 49 -78
1 -44 -20 15 -29 17 -29 8 0 -10 -2 -10 -9 1 -5 8 -18 16 -28 17 -102 14 -124
24 -115 56 3 14 8 16 25 7 11 -6 41 -9 66 -6z m-404 -6 c16 -13 15 -14 -20
-20 -46 -8 -55 -2 -29 18 24 18 26 18 49 2z m1485 -111 c-22 -37 -37 -48 -26
-20 3 8 2 12 -4 9 -6 -3 -10 -14 -10 -23 -1 -21 -38 -66 -68 -81 l-23 -12 23
42 c13 23 28 51 35 63 7 12 28 28 48 36 19 7 35 18 35 24 0 5 3 7 6 3 4 -3 -4
-22 -16 -41z m832 7 c10 -9 18 -29 18 -46 0 -25 -2 -28 -15 -17 -8 7 -15 17
-15 22 0 5 -7 16 -15 24 -32 32 -7 48 27 17z m-825 -96 c-12 -19 -22 -23 -47
-19 -36 5 -34 9 18 32 44 21 50 18 29 -13z m-1218 9 c10 -12 8 -19 -6 -33 -11
-11 -27 -30 -35 -42 -15 -21 -22 -23 -63 -17 -26 4 -43 11 -39 17 3 6 12 8 19
5 19 -7 65 31 65 54 0 16 10 23 41 29 4 0 12 -5 18 -13z m1191 -43 c0 -5 -16
-30 -36 -56 -45 -62 -103 -89 -199 -93 l-69 -3 34 20 c27 17 44 20 84 15 30
-3 46 -2 40 4 -5 5 -27 10 -49 13 -34 3 -37 5 -17 12 12 4 22 11 22 15 0 10
64 51 105 67 34 13 85 17 85 6z m859 -69 c1 -6 -8 -19 -19 -29 -19 -17 -20
-17 -26 1 -3 11 -10 29 -15 42 -19 47 -11 56 25 25 19 -15 35 -33 35 -39z
m-1839 47 c0 -5 -7 -11 -16 -13 -12 -2 -9 -9 14 -33 l30 -30 -36 -21 c-33 -18
-40 -19 -64 -7 -20 9 -29 10 -34 2 -5 -8 -10 -6 -16 5 -8 14 -18 16 -49 11
-21 -4 -39 -3 -39 2 0 8 79 31 121 36 9 1 16 8 15 16 -1 8 10 21 24 28 30 15
50 17 50 4z"/>
<path d="M2565 2784 l-40 -63 -80 -3 -80 -2 73 -3 c70 -4 82 -9 62 -29 -5 -5
-20 -29 -33 -54 -18 -35 -34 -49 -68 -63 -41 -17 -42 -17 -9 -11 19 3 41 6 48
7 6 0 12 6 12 12 0 7 9 20 20 30 11 10 20 25 20 34 0 9 7 25 15 35 12 16 17
17 30 6 17 -14 21 0 5 16 -7 7 2 30 30 72 23 34 40 66 38 71 -2 4 -21 -20 -43
-55z"/>
<path d="M2615 2708 c-26 -55 -32 -112 -15 -123 6 -4 7 5 4 23 -4 19 3 50 19
91 30 75 25 80 -8 9z"/>
<path d="M2848 2593 c0 -10 -2 -23 -2 -30 -1 -7 -10 -19 -21 -27 -11 -9 -15
-15 -10 -15 21 0 41 25 43 57 1 17 0 32 -3 32 -3 0 -6 -8 -7 -17z"/>
<path d="M2705 2269 c-4 -6 -13 -8 -21 -5 -8 3 -24 1 -36 -4 l-23 -9 24 0 c20
-1 21 -3 11 -16 -18 -21 -3 -19 31 6 l29 20 1 -48 c0 -41 2 -44 10 -24 10 26
2 91 -12 91 -4 0 -11 -5 -14 -11z"/>
<path d="M2151 2263 c-1 -38 5 -49 47 -95 55 -61 88 -112 97 -150 4 -16 11
-28 15 -28 5 0 5 14 0 31 -6 19 -6 48 -1 71 9 39 9 39 -17 33 -22 -4 -32 1
-57 32 -16 20 -42 62 -57 93 l-26 55 -1 -42z"/>
<path d="M2000 2284 c0 -10 25 -30 58 -46 39 -20 42 -7 5 20 -31 21 -63 34
-63 26z"/>
<path d="M320 1444 c0 -6 14 -23 30 -39 17 -16 30 -24 30 -19 0 6 -13 23 -30
39 -16 16 -30 24 -30 19z"/>
<path d="M320 1386 c0 -2 16 -30 35 -62 19 -32 35 -66 35 -76 0 -10 4 -26 9
-36 6 -9 13 -33 16 -53 3 -21 12 -43 21 -49 13 -11 13 -10 5 13 -7 17 -7 28
-1 32 16 10 11 25 -5 19 -18 -7 -19 4 -5 43 10 27 9 27 -6 8 -15 -19 -16 -19
-12 15 3 19 8 44 13 55 8 20 8 20 -8 0 -16 -19 -16 -19 -18 10 -1 18 -3 23 -6
12 -4 -14 -11 -8 -34 27 -25 40 -39 55 -39 42z"/>
<path d="M560 1338 c0 -38 3 -49 10 -38 13 20 13 77 0 85 -6 4 -10 -14 -10
-47z"/>
<path d="M300 1370 c0 -18 39 -84 46 -78 2 3 -7 25 -21 49 -13 24 -25 37 -25
29z"/>
<path d="M531 1269 c1 -30 5 -67 9 -84 4 -17 5 5 2 50 -6 93 -13 114 -11 34z"/>
<path d="M327 1241 c23 -23 48 -41 54 -41 15 0 16 -1 -46 45 l-50 36 42 -40z"/>
<path d="M574 1221 c3 -18 6 -53 6 -77 0 -24 4 -44 8 -44 10 0 -2 138 -13 148
-4 4 -5 -8 -1 -27z"/>
<path d="M673 1145 c3 -16 9 -50 13 -75 5 -37 23 -88 24 -70 1 15 -31 165 -36
169 -4 3 -4 -7 -1 -24z"/>
<path d="M551 1140 c-1 -23 19 -89 29 -95 8 -5 2 20 -23 95 -5 13 -6 13 -6 0z"/>
<path d="M2652 1141 l-2 -44 25 23 c29 27 34 42 6 16 -19 -17 -20 -17 -24 16
-3 28 -4 27 -5 -11z"/>
<path d="M882 680 c0 -19 3 -44 8 -55 8 -18 9 -18 8 5 0 14 -4 39 -8 55 l-8
30 0 -35z"/>
<path d="M1615 340 l-30 -8 35 -1 c19 0 42 4 50 9 12 8 11 10 -5 9 -11 -1 -33
-5 -50 -9z"/>
<path d="M1560 309 c0 -5 23 -9 52 -9 28 0 49 2 47 4 -9 8 -99 13 -99 5z"/>
<path d="M2060 2906 c0 -12 12 -13 58 -9 83 8 89 23 9 23 -51 0 -67 -3 -67
-14z"/>
<path d="M474 2843 c10 -3 34 -14 53 -24 18 -10 39 -19 46 -19 7 0 18 -5 25
-12 18 -18 -17 -39 -43 -25 -18 9 -19 9 -6 -6 7 -10 20 -17 29 -17 11 0 8 -8
-13 -30 -22 -23 -38 -30 -66 -30 -20 0 -42 7 -49 15 -14 17 -30 20 -30 4 0 -5
4 -8 9 -5 5 3 14 -1 21 -9 19 -23 81 -19 118 8 17 13 29 27 25 30 -10 11 7 8
20 -3 7 -6 27 -20 46 -33 39 -25 57 -56 25 -42 -28 12 -87 12 -91 -1 -2 -6 10
-17 27 -24 l31 -13 -23 -24 c-19 -20 -20 -27 -10 -43 17 -27 15 -38 -7 -45
-14 -4 -31 6 -62 34 -41 40 -41 41 -19 49 19 7 20 10 7 15 -9 3 -19 2 -22 -3
-7 -11 -53 -3 -72 13 -7 5 -10 13 -7 18 9 14 -6 10 -22 -6 -22 -22 -61 -19
-74 6 -7 11 -14 18 -17 15 -3 -3 -1 -12 6 -20 16 -19 -16 -31 -37 -14 -11 9
-13 9 -9 1 5 -7 -1 -13 -15 -16 -22 -4 -22 -4 1 -6 14 0 35 -10 47 -22 14 -13
27 -18 36 -13 9 6 7 10 -10 14 -42 9 -28 25 28 31 65 7 104 -8 128 -52 10 -16
25 -29 35 -29 9 0 17 -4 17 -9 0 -5 11 -16 25 -25 28 -19 48 -12 88 28 l24 24
-35 7 c-40 7 -33 22 21 42 27 10 29 12 9 12 -30 1 -25 18 12 39 16 9 38 25 48
35 20 19 34 22 42 8 3 -5 -10 -21 -29 -35 -38 -29 -45 -47 -17 -41 28 6 68 24
54 24 -7 1 -22 -4 -33 -9 -13 -7 -19 -7 -19 0 0 5 6 10 13 10 8 0 22 9 31 19
9 10 25 18 34 16 9 -1 12 0 5 2 -9 3 -8 12 1 34 12 28 32 45 76 65 8 4 23 14
33 22 17 15 24 5 10 -14 -5 -5 2 1 15 15 29 29 10 49 -19 20 -17 -17 -35 -19
-161 -19 -118 0 -144 3 -160 17 -17 15 -17 18 -2 34 14 16 13 17 -9 15 -17 -1
-23 -6 -19 -18 6 -24 -19 -23 -51 2 -14 11 -38 19 -54 19 -19 -1 -22 -3 -9 -6z
m162 -83 c6 -6 50 -13 97 -17 48 -3 87 -9 86 -12 -3 -28 -19 -44 -45 -46 -16
-1 -36 -5 -45 -9 -9 -4 -26 3 -44 19 -27 23 -28 24 -7 20 12 -2 20 0 17 5 -3
5 -28 12 -56 16 -40 5 -47 9 -38 20 14 17 22 17 35 4z"/>
<path d="M423 2833 c-16 -6 -17 -32 -3 -53 8 -11 9 -7 4 15 l-7 30 24 -20 24
-20 -18 21 c-9 11 -14 24 -10 27 7 8 4 8 -14 0z"/>
<path d="M190 2767 c0 -6 81 -87 87 -87 2 0 -5 12 -16 26 -20 25 -71 69 -71
61z"/>
<path d="M940 2735 c-73 -70 -87 -94 -54 -87 17 3 22 7 13 12 -9 6 -6 12 10
21 11 8 21 19 21 25 0 6 10 18 23 27 12 8 20 17 17 21 -3 3 -17 -5 -30 -19z"/>
<path d="M338 2522 c-10 -2 -18 -7 -18 -10 1 -11 27 -42 35 -42 5 0 0 9 -9 19
-18 19 -17 20 26 23 38 3 39 4 13 8 -16 3 -38 4 -47 2z"/>
<path d="M753 2486 c4 -10 7 -27 7 -39 1 -22 1 -22 15 -3 8 11 15 29 14 40 -1
18 -2 18 -9 -4 -5 -16 -8 -19 -9 -8 -1 9 -6 20 -13 24 -8 5 -9 2 -5 -10z"/>
<path d="M500 2421 c0 -5 -6 -9 -12 -8 -35 1 -58 -4 -58 -13 0 -12 60 -44 68
-36 3 3 0 6 -7 6 -7 0 -9 4 -6 10 3 5 0 7 -8 4 -8 -3 -18 -1 -21 4 -11 18 27
23 45 6 18 -16 19 -16 17 9 -2 24 -18 40 -18 18z"/>
<path d="M566 2386 c6 -16 3 -17 -17 -11 -24 7 -24 7 -4 -9 20 -17 20 -17 -2
-11 -14 4 -23 2 -23 -4 0 -6 6 -11 14 -11 8 0 20 -2 28 -5 15 -6 19 47 5 61
-4 5 -5 0 -1 -10z"/>
<path d="M379 2386 c-3 -3 -23 -6 -46 -7 -27 -2 -39 -7 -36 -15 4 -12 -22 -44
-37 -44 -4 0 -10 -10 -13 -21 l-6 -21 23 21 c12 12 26 18 29 14 4 -3 7 3 7 15
0 30 16 37 103 45 9 1 17 5 17 9 0 8 -33 11 -41 4z"/>
<path d="M819 2364 c-7 -9 -12 -37 -12 -64 1 -54 -16 -59 -42 -11 -9 16 -14
20 -15 10 0 -18 39 -58 95 -99 16 -11 15 -9 -3 12 -13 14 -23 34 -21 44 1 11
-1 26 -5 35 -4 9 0 33 8 53 16 39 15 44 -5 20z"/>
<path d="M419 2347 c11 -14 11 -17 0 -18 -8 -1 -3 -4 11 -9 14 -4 35 -5 48 -3
12 3 28 0 35 -6 10 -8 14 -7 14 4 0 11 -11 15 -36 15 -20 0 -48 8 -61 17 -24
16 -24 16 -11 0z"/>
<path d="M351 2323 c0 -10 5 -27 10 -38 7 -16 8 -13 4 14 -5 31 -4 32 13 20
15 -13 16 -12 3 4 -7 9 -17 17 -22 17 -5 0 -9 -8 -8 -17z"/>
<path d="M406 2258 c3 -5 13 -8 23 -8 10 0 21 -3 25 -7 12 -13 35 -11 30 2 -3
7 -23 15 -44 17 -21 2 -36 0 -34 -4z"/>
<path d="M1460 2256 c0 -19 7 -23 55 -31 l40 -7 -30 26 c-33 28 -65 34 -65 12z"/>
<path d="M723 2244 c-14 -6 -6 -34 15 -51 12 -10 12 -16 3 -26 -9 -12 -7 -16
14 -19 14 -3 30 1 36 8 9 11 7 14 -10 14 -23 0 -29 25 -8 34 6 3 2 3 -9 1 -27
-7 -40 21 -16 34 13 8 14 10 2 10 -8 0 -20 -3 -27 -5z"/>
<path d="M866 2154 c4 -17 2 -29 -7 -35 -11 -7 -10 -9 4 -9 9 0 17 6 17 14 0
8 3 21 6 29 3 8 -2 17 -11 20 -12 5 -14 1 -9 -19z"/>
<path d="M660 2130 c-6 -12 -10 -28 -8 -38 1 -9 -1 -23 -6 -30 -4 -7 -6 -16
-3 -19 5 -4 57 88 57 102 0 14 -31 3 -40 -15z"/>
<path d="M200 2112 c0 -4 7 -18 16 -31 13 -18 14 -28 5 -47 -15 -34 -13 -43 4
-20 21 27 19 62 -5 86 -11 11 -20 17 -20 12z"/>
<path d="M1670 1771 c0 -14 79 -97 80 -83 0 22 -29 71 -49 82 -24 12 -31 13
-31 1z"/>
<path d="M1194 1555 c3 -9 6 -19 6 -21 0 -2 7 -4 16 -4 22 0 13 34 -10 38 -14
3 -17 0 -12 -13z"/>
<path d="M2547 1513 c-11 -17 -19 -128 -9 -118 5 6 12 36 14 68 5 56 4 64 -5
50z"/>
<path d="M2497 1446 c-4 -10 -6 -45 -6 -79 l2 -62 8 69 c10 72 8 103 -4 72z"/>
<path d="M2503 1261 c-24 -48 -43 -92 -43 -97 0 -14 48 69 75 131 40 89 14 63
-32 -34z"/>
<path d="M439 936 c9 -11 6 -15 -16 -21 -16 -4 -23 -9 -16 -12 7 -2 22 1 33 7
18 10 24 8 35 -7 7 -10 17 -14 22 -10 4 5 -1 15 -12 22 -11 8 -25 19 -32 25
-18 15 -27 12 -14 -4z"/>
<path d="M2120 896 c-12 -33 -13 -46 -1 -46 9 0 22 61 15 69 -2 2 -8 -8 -14
-23z"/>
<path d="M2884 862 c-6 -16 -8 -36 -3 -43 13 -21 21 -4 17 36 l-3 38 -11 -31z"/>
<path d="M2110 823 c30 -32 55 -60 57 -62 2 -2 3 1 3 8 0 15 -89 111 -103 111
-5 0 14 -26 43 -57z"/>
<path d="M2696 711 c-17 -6 -17 -8 -4 -14 24 -9 63 3 46 14 -15 10 -17 10 -42
0z"/>
<path d="M2273 490 c26 -16 10 -32 -30 -28 -18 1 -37 -2 -41 -7 -7 -10 -42
-29 -72 -38 -8 -3 -3 -6 11 -6 15 -1 38 8 52 19 14 11 38 20 54 20 26 -1 27
-1 9 -15 -10 -8 -23 -12 -27 -9 -17 10 -67 -25 -71 -51 -6 -28 -1 -26 16 6 6
12 22 26 35 31 19 7 22 5 17 -9 -6 -15 -5 -15 13 1 18 17 19 17 24 -1 3 -13 5
-12 6 6 0 14 11 35 23 48 24 26 23 28 -12 37 -21 6 -22 5 -7 -4z"/>
<path d="M2853 468 c-34 -38 -38 -55 -6 -25 16 15 34 27 41 27 7 0 12 5 12 10
0 18 -26 11 -47 -12z"/>
<path d="M1005 453 c8 -16 19 -42 25 -60 13 -36 43 -51 65 -33 22 19 18 33
-20 70 -43 42 -46 28 -4 -23 l30 -37 -25 0 c-14 0 -26 5 -26 12 0 19 -41 98
-50 98 -5 0 -3 -12 5 -27z"/>
<path d="M2878 448 c-7 -19 4 -68 13 -62 12 7 12 74 0 74 -5 0 -11 -5 -13 -12z"/>
<path d="M2130 379 c0 -5 -3 -8 -8 -6 -4 3 -23 -3 -42 -14 -19 -10 -31 -18
-27 -19 4 0 21 7 36 15 16 8 31 12 33 9 3 -2 11 2 18 11 8 10 9 15 1 15 -6 0
-11 -5 -11 -11z"/>
<path d="M2863 333 c-32 -41 -103 -169 -103 -188 0 -6 27 -10 67 -9 l68 1 3
62 c2 34 2 87 0 118 l-3 55 -32 -39z m14 -92 c-2 -33 -6 -41 -27 -46 -14 -3
-33 -8 -43 -11 -18 -6 -18 -4 -1 28 17 33 50 68 65 68 5 0 8 -18 6 -39z m3
-61 c0 -12 -11 -16 -62 -24 -75 -10 -31 15 55 33 4 0 7 -4 7 -9z"/>
<path d="M2460 321 c5 -11 10 -31 10 -45 0 -14 4 -27 9 -31 6 -3 7 9 4 30 -5
31 -3 35 12 29 13 -5 16 -4 11 4 -4 7 -14 12 -22 12 -8 0 -14 5 -14 10 0 6 -5
10 -10 10 -7 0 -7 -6 0 -19z"/>
<path d="M2689 310 c-1 -14 -3 -43 -4 -65 -1 -22 -5 -49 -8 -60 -4 -11 1 -2
12 20 15 31 17 50 11 85 -5 32 -8 38 -11 20z"/>
<path d="M2353 203 c-43 -56 -62 -57 -22 -2 11 16 18 29 15 29 -17 0 -36 -15
-36 -29 -1 -17 -23 -51 -34 -51 -4 0 -4 5 -1 10 3 6 2 10 -4 10 -5 0 -12 -4
-15 -8 -3 -5 -19 -7 -35 -4 -17 2 -28 8 -25 13 3 5 -4 9 -15 9 -11 0 -23 -5
-27 -12 -5 -8 -11 -6 -20 6 -12 17 -14 16 -33 -3 -12 -12 -21 -24 -21 -29 0
-4 70 -7 155 -7 137 0 156 2 161 17 3 9 11 15 19 12 8 -3 20 -2 26 2 9 5 6 10
-9 15 -16 6 -22 17 -22 38 0 16 -3 32 -7 34 -5 3 -27 -20 -50 -50z m38 1 c-4
-26 -13 -39 -28 -45 -15 -5 -23 -5 -23 2 0 9 48 79 55 79 1 0 -1 -16 -4 -36z"/>
<path d="M2610 234 c0 -4 9 -22 21 -40 l21 -34 -29 -1 c-15 0 -37 -4 -48 -9
-13 -6 14 -9 78 -9 63 -1 96 3 92 9 -3 6 -24 10 -45 10 -35 0 -41 4 -56 35
-15 33 -34 54 -34 39z"/>
<path d="M730 194 c0 -6 11 -23 25 -38 22 -24 30 -26 103 -26 67 0 82 3 97 21
l19 20 -108 -2 c-94 -1 -109 1 -121 17 -8 11 -15 14 -15 8z"/>
</g>
</svg>
